<mxfile host="65bd71144e">
    <diagram id="XLFbs8y-DBb7VhMLaqh1" name="PÃ¡gina-1">
        <mxGraphModel dx="353" dy="202" grid="1" gridSize="10" guides="1" tooltips="1" connect="1" arrows="1" fold="1" page="1" pageScale="1" pageWidth="827" pageHeight="1169" math="0" shadow="0">
            <root>
                <mxCell id="0"/>
                <mxCell id="1" parent="0"/>
                <mxCell id="2" value="&lt;font style=&quot;font-size: 22px;&quot;&gt;inicio&lt;/font&gt;" style="ellipse;whiteSpace=wrap;html=1;fillColor=#60a917;fontColor=#ffffff;strokeColor=#2D7600;" parent="1" vertex="1">
                    <mxGeometry x="284" y="90" width="116" height="80" as="geometry"/>
                </mxCell>
                <mxCell id="3" value="" style="edgeStyle=none;orthogonalLoop=1;jettySize=auto;html=1;fontSize=22;exitX=0.5;exitY=1;exitDx=0;exitDy=0;entryX=0.5;entryY=0;entryDx=0;entryDy=0;" parent="1" source="2" target="4" edge="1">
                    <mxGeometry width="100" relative="1" as="geometry">
                        <mxPoint x="320" y="210" as="sourcePoint"/>
                        <mxPoint x="342" y="240" as="targetPoint"/>
                        <Array as="points"/>
                    </mxGeometry>
                </mxCell>
                <mxCell id="4" value="n" style="shape=parallelogram;perimeter=parallelogramPerimeter;whiteSpace=wrap;html=1;fixedSize=1;fontSize=22;fillColor=#008a00;fontColor=#ffffff;strokeColor=#005700;" parent="1" vertex="1">
                    <mxGeometry x="282" y="240" width="120" height="60" as="geometry"/>
                </mxCell>
                <mxCell id="5" value="" style="edgeStyle=none;orthogonalLoop=1;jettySize=auto;html=1;fontSize=22;exitX=0.5;exitY=1;exitDx=0;exitDy=0;entryX=0.5;entryY=0;entryDx=0;entryDy=0;" parent="1" source="4" target="6" edge="1">
                    <mxGeometry width="100" relative="1" as="geometry">
                        <mxPoint x="260" y="380" as="sourcePoint"/>
                        <mxPoint x="342" y="380" as="targetPoint"/>
                        <Array as="points"/>
                    </mxGeometry>
                </mxCell>
                <mxCell id="6" value="q = h/5&lt;br&gt;n = 0" style="whiteSpace=wrap;html=1;fontSize=22;fillColor=#0050ef;fontColor=#ffffff;strokeColor=#001DBC;" parent="1" vertex="1">
                    <mxGeometry x="263" y="380" width="158" height="60" as="geometry"/>
                </mxCell>
                <mxCell id="7" value="" style="edgeStyle=none;orthogonalLoop=1;jettySize=auto;html=1;fontSize=22;exitX=0.5;exitY=1;exitDx=0;exitDy=0;entryX=0.5;entryY=0;entryDx=0;entryDy=0;" parent="1" source="6" target="8" edge="1">
                    <mxGeometry width="100" relative="1" as="geometry">
                        <mxPoint x="250" y="570" as="sourcePoint"/>
                        <mxPoint x="342" y="520" as="targetPoint"/>
                        <Array as="points"/>
                    </mxGeometry>
                </mxCell>
                <mxCell id="8" value="i &amp;gt;= q" style="rhombus;whiteSpace=wrap;html=1;fontSize=22;fillColor=#0050ef;fontColor=#ffffff;strokeColor=#001DBC;" parent="1" vertex="1">
                    <mxGeometry x="302" y="510" width="80" height="80" as="geometry"/>
                </mxCell>
                <mxCell id="9" value="" style="edgeStyle=none;orthogonalLoop=1;jettySize=auto;html=1;fontSize=22;exitX=0.5;exitY=1;exitDx=0;exitDy=0;entryX=0.5;entryY=0;entryDx=0;entryDy=0;" parent="1" source="8" target="10" edge="1">
                    <mxGeometry width="100" relative="1" as="geometry">
                        <mxPoint x="200" y="680" as="sourcePoint"/>
                        <mxPoint x="340" y="630" as="targetPoint"/>
                        <Array as="points"/>
                    </mxGeometry>
                </mxCell>
                <mxCell id="10" value="h = 0.9 * h&lt;br&gt;i = i + 1" style="whiteSpace=wrap;html=1;fontSize=22;fillColor=#6a00ff;fontColor=#ffffff;strokeColor=#3700CC;" parent="1" vertex="1">
                    <mxGeometry x="267.5" y="620" width="149" height="80" as="geometry"/>
                </mxCell>
                <mxCell id="11" value="" style="edgeStyle=segmentEdgeStyle;endArrow=classic;html=1;curved=0;rounded=0;endSize=8;startSize=8;sourcePerimeterSpacing=0;targetPerimeterSpacing=0;fontSize=22;exitX=0.5;exitY=1;exitDx=0;exitDy=0;" parent="1" source="10" edge="1">
                    <mxGeometry width="100" relative="1" as="geometry">
                        <mxPoint x="60" y="640" as="sourcePoint"/>
                        <mxPoint x="340" y="480" as="targetPoint"/>
                        <Array as="points">
                            <mxPoint x="341" y="700"/>
                            <mxPoint x="341" y="720"/>
                            <mxPoint x="200" y="720"/>
                            <mxPoint x="200" y="480"/>
                        </Array>
                    </mxGeometry>
                </mxCell>
                <mxCell id="13" value="" style="edgeStyle=segmentEdgeStyle;endArrow=classic;html=1;curved=0;rounded=0;endSize=8;startSize=8;sourcePerimeterSpacing=0;targetPerimeterSpacing=0;fontSize=22;exitX=1;exitY=0.5;exitDx=0;exitDy=0;entryX=0.5;entryY=0;entryDx=0;entryDy=0;" parent="1" source="8" target="14" edge="1">
                    <mxGeometry width="100" relative="1" as="geometry">
                        <mxPoint x="550" y="590" as="sourcePoint"/>
                        <mxPoint x="480" y="720" as="targetPoint"/>
                        <Array as="points">
                            <mxPoint x="530" y="550"/>
                        </Array>
                    </mxGeometry>
                </mxCell>
                <mxCell id="14" value="h" style="shape=document;whiteSpace=wrap;html=1;boundedLbl=1;fontSize=22;fillColor=#d80073;fontColor=#ffffff;strokeColor=#A50040;" parent="1" vertex="1">
                    <mxGeometry x="470" y="690" width="120" height="80" as="geometry"/>
                </mxCell>
                <mxCell id="15" value="" style="edgeStyle=none;orthogonalLoop=1;jettySize=auto;html=1;fontSize=22;exitX=0.525;exitY=0.9;exitDx=0;exitDy=0;exitPerimeter=0;entryX=0.5;entryY=0;entryDx=0;entryDy=0;" parent="1" source="14" target="16" edge="1">
                    <mxGeometry width="100" relative="1" as="geometry">
                        <mxPoint x="380" y="910" as="sourcePoint"/>
                        <mxPoint x="480" y="840" as="targetPoint"/>
                        <Array as="points"/>
                    </mxGeometry>
                </mxCell>
                <mxCell id="16" value="fin" style="ellipse;whiteSpace=wrap;html=1;fontSize=22;fillColor=#a20025;fontColor=#ffffff;strokeColor=#6F0000;" parent="1" vertex="1">
                    <mxGeometry x="473" y="830" width="120" height="80" as="geometry"/>
                </mxCell>
            </root>
        </mxGraphModel>
    </diagram>
</mxfile>